<?xml version="1.0" encoding="utf-8"?>
<!-- Generator: Adobe Illustrator 15.1.0, SVG Export Plug-In . SVG Version: 6.00 Build 0)  -->
<!DOCTYPE svg PUBLIC "-//W3C//DTD SVG 1.1//EN" "http://www.w3.org/Graphics/SVG/1.1/DTD/svg11.dtd">
<svg version="1.1" id="Layer_1" xmlns="http://www.w3.org/2000/svg" xmlns:xlink="http://www.w3.org/1999/xlink" x="0px" y="0px"
	 width="74.667px" height="64px" viewBox="0 0 74.667 64" enable-background="new 0 0 74.667 64" xml:space="preserve">
<g>
	<path fill="#525452" d="M28.229,1.562L1.562,28.229c-2.083,2.083-2.083,5.46,0,7.543l26.667,26.666
		c2.083,2.083,5.459,2.083,7.542,0c2.083-2.082,2.083-5.459,0-7.542L18.209,37.334h51.125c2.945,0,5.333-2.389,5.333-5.334
		s-2.388-5.333-5.333-5.333H18.209L35.771,9.104c1.042-1.041,1.562-2.406,1.562-3.771c0-1.365-0.521-2.73-1.562-3.771
		C33.689-0.521,30.312-0.521,28.229,1.562z"/>
</g>
</svg>
