<?xml version="1.0" encoding="utf-8"?>
<!-- Generator: Adobe Illustrator 15.1.0, SVG Export Plug-In . SVG Version: 6.00 Build 0)  -->
<!DOCTYPE svg PUBLIC "-//W3C//DTD SVG 1.1//EN" "http://www.w3.org/Graphics/SVG/1.1/DTD/svg11.dtd">
<svg version="1.1" id="Layer_1" xmlns="http://www.w3.org/2000/svg" xmlns:xlink="http://www.w3.org/1999/xlink" x="0px" y="0px"
	 width="89.557px" height="98px" viewBox="0 0 89.557 98" enable-background="new 0 0 89.557 98" xml:space="preserve">
<g>
	<g>
		<path fill="#396C9C" d="M0.506,83.828h27.663C29.557,91.589,36.352,97.5,44.506,97.5s14.949-5.911,16.338-13.672h28.162
			l-0.568-5.859c-0.752-5.222-3.49-9.968-7.686-13.241l-2.158-29.698c-0.625-8.594-4.447-16.575-10.764-22.475
			c-5.631-5.259-12.785-8.421-20.395-9.069V0.5h-5.859v2.986c-7.61,0.648-14.763,3.81-20.394,9.069
			c-6.317,5.899-10.14,13.881-10.764,22.475L8.259,64.728c-4.195,3.273-6.934,8.02-7.685,13.241L0.506,83.828z M16.262,35.454
			C17.331,20.743,29.737,9.219,44.506,9.219S71.681,20.743,72.75,35.454l2.029,27.914H14.233L16.262,35.454z M44.506,91.641
			c-4.908,0-9.054-3.309-10.333-7.812h20.665C53.56,88.332,49.414,91.641,44.506,91.641z M6.521,77.969
			c0.705-3.461,2.643-6.572,5.5-8.741H76.99c2.857,2.169,4.795,5.28,5.5,8.741H6.521z"/>
		<path fill="#396C9C" d="M44.506,98c-8.152,0-15.13-5.725-16.751-13.672H0l0.075-6.365c0.77-5.382,3.5-10.142,7.702-13.491
			l2.143-29.479c0.634-8.72,4.512-16.818,10.921-22.804c5.622-5.25,12.61-8.412,20.235-9.16V0h6.859v3.03
			c7.626,0.748,14.615,3.909,20.236,9.16c6.408,5.985,10.287,14.083,10.921,22.804l2.143,29.479
			c4.201,3.349,6.932,8.107,7.698,13.426l0.624,6.431H61.257C59.636,92.275,52.657,98,44.506,98z M1.011,83.328h27.576l0.074,0.412
			C30.035,91.424,36.699,97,44.506,97c7.807,0,14.471-5.576,15.846-13.26l0.074-0.412h28.03l-0.515-5.312
			c-0.737-5.111-3.4-9.699-7.496-12.895l-0.175-0.137l-2.174-29.92c-0.616-8.468-4.383-16.333-10.606-22.146
			C61.92,7.719,54.972,4.629,47.393,3.984l-0.458-0.039V1h-4.859v2.945l-0.458,0.039c-7.578,0.646-14.527,3.735-20.095,8.936
			c-6.225,5.813-9.991,13.678-10.607,22.146l-2.175,29.92l-0.175,0.137C4.471,68.318,1.808,72.906,1.07,78.04L1.011,83.328z
			 M44.506,92.141c-5,0-9.447-3.362-10.814-8.176l-0.181-0.637H55.5l-0.181,0.637C53.953,88.778,49.506,92.141,44.506,92.141z
			 M34.857,84.328c1.441,4.043,5.317,6.812,9.648,6.812c4.332,0,8.207-2.77,9.647-6.812H34.857z M83.103,78.469H5.909l0.123-0.6
			c0.733-3.603,2.753-6.812,5.688-9.04l0.134-0.102h65.306l0.134,0.102c2.934,2.228,4.954,5.438,5.688,9.04L83.103,78.469z
			 M7.147,77.469h74.717c-0.765-3.066-2.538-5.792-5.044-7.741H12.191C9.684,71.678,7.912,74.402,7.147,77.469z M75.317,63.868
			H13.695l2.068-28.45C16.851,20.446,29.477,8.719,44.506,8.719s27.655,11.728,28.743,26.699L75.317,63.868z M14.771,62.868h59.471
			l-1.99-27.378C71.201,21.039,59.014,9.719,44.506,9.719S17.811,21.039,16.761,35.49L14.771,62.868z"/>
	</g>
</g>
</svg>
