<?xml version="1.0" encoding="utf-8"?>
<!-- Generator: Adobe Illustrator 23.0.1, SVG Export Plug-In . SVG Version: 6.00 Build 0)  -->
<svg version="1.1" xmlns="http://www.w3.org/2000/svg" xmlns:xlink="http://www.w3.org/1999/xlink" x="0px" y="0px"
	 viewBox="0 0 26 26" style="enable-background:new 0 0 26 26;" xml:space="preserve">
<style type="text/css">
	.st0{display:none;}
	.st1{display:inline;fill:#002A3A;}
	.st2{fill:#002A3A;}
	.st3{display:inline;fill:#41B6E6;}
</style>
<g id="default">
	<g id="profile" class="st0">
		<path class="st1" d="M25,13c0-6.62-5.38-12-12-12S1,6.38,1,13c0,3.49,1.5,6.65,3.9,8.84l-0.01,0.01l0.39,0.33
			c0.03,0.02,0.05,0.04,0.08,0.06c0.21,0.17,0.42,0.33,0.64,0.49c0.07,0.05,0.14,0.1,0.21,0.15c0.23,0.16,0.47,0.31,0.72,0.46
			c0.05,0.03,0.11,0.06,0.16,0.09c0.27,0.15,0.54,0.3,0.82,0.43c0.02,0.01,0.04,0.02,0.06,0.03c0.91,0.42,1.89,0.73,2.9,0.92
			c0.03,0,0.05,0.01,0.08,0.01c0.32,0.06,0.63,0.1,0.96,0.13c0.04,0,0.08,0.01,0.12,0.01C12.34,24.98,12.67,25,13,25
			c0.33,0,0.65-0.02,0.97-0.04c0.04,0,0.08-0.01,0.12-0.01c0.32-0.03,0.64-0.07,0.95-0.13c0.03,0,0.06-0.01,0.08-0.02
			c1-0.18,1.96-0.48,2.86-0.9c0.03-0.01,0.07-0.03,0.1-0.04c0.27-0.13,0.53-0.26,0.79-0.41c0.06-0.04,0.13-0.07,0.19-0.11
			c0.23-0.14,0.47-0.28,0.69-0.44c0.08-0.05,0.16-0.11,0.24-0.17c0.19-0.14,0.38-0.28,0.56-0.43c0.04-0.03,0.09-0.06,0.13-0.09
			l0.4-0.33l-0.01-0.01C23.48,19.68,25,16.51,25,13L25,13z M1.87,13C1.87,6.86,6.86,1.87,13,1.87S24.13,6.86,24.13,13
			c0,3.31-1.45,6.28-3.75,8.32c-0.13-0.09-0.26-0.17-0.39-0.23l-3.69-1.85c-0.33-0.17-0.54-0.5-0.54-0.87v-1.29
			c0.09-0.1,0.18-0.22,0.27-0.36c0.48-0.68,0.86-1.43,1.14-2.23c0.55-0.26,0.91-0.81,0.91-1.44V11.5c0-0.38-0.14-0.74-0.39-1.03
			V8.43c0.02-0.23,0.1-1.5-0.82-2.56c-0.8-0.92-2.11-1.38-3.87-1.38c-1.76,0-3.07,0.47-3.87,1.38C8.21,6.93,8.29,8.21,8.31,8.43
			v2.04c-0.25,0.29-0.39,0.66-0.39,1.03v1.55c0,0.48,0.22,0.93,0.58,1.23c0.35,1.38,1.08,2.43,1.35,2.79v1.26
			c0,0.36-0.2,0.68-0.51,0.85L5.9,21.07c-0.11,0.06-0.22,0.13-0.33,0.21C3.3,19.24,1.87,16.28,1.87,13L1.87,13z M19.53,22
			c-0.15,0.11-0.31,0.22-0.47,0.32c-0.07,0.05-0.14,0.09-0.22,0.14c-0.21,0.13-0.42,0.25-0.63,0.36c-0.05,0.02-0.09,0.05-0.14,0.07
			c-0.49,0.25-1,0.47-1.52,0.64c-0.02,0.01-0.04,0.01-0.06,0.02c-0.27,0.09-0.55,0.17-0.83,0.24h0c-0.28,0.07-0.57,0.13-0.86,0.18
			c-0.01,0-0.02,0-0.02,0c-0.27,0.04-0.55,0.07-0.82,0.1c-0.05,0-0.1,0.01-0.15,0.01c-0.27,0.02-0.54,0.03-0.82,0.03
			c-0.28,0-0.55-0.01-0.83-0.03c-0.05,0-0.1-0.01-0.14-0.01c-0.28-0.02-0.55-0.06-0.82-0.1l-0.04-0.01c-0.58-0.1-1.14-0.24-1.7-0.42
			c-0.02-0.01-0.03-0.01-0.05-0.02c-0.27-0.09-0.55-0.2-0.81-0.31c0,0,0,0-0.01,0c-0.25-0.11-0.5-0.23-0.74-0.36
			c-0.03-0.02-0.06-0.03-0.1-0.05c-0.22-0.12-0.44-0.25-0.66-0.38c-0.06-0.04-0.13-0.08-0.19-0.12c-0.2-0.13-0.39-0.26-0.58-0.41
			c-0.02-0.01-0.04-0.03-0.06-0.04l0.04-0.02l3.45-1.88c0.59-0.32,0.96-0.95,0.96-1.62v-1.57l-0.1-0.12
			c-0.01-0.01-0.95-1.16-1.31-2.71l-0.04-0.17l-0.15-0.1c-0.21-0.14-0.34-0.36-0.34-0.61V11.5c0-0.2,0.09-0.39,0.24-0.54l0.15-0.13
			V8.41l0-0.06c0-0.01-0.13-1.06,0.61-1.9C10.42,5.73,11.5,5.36,13,5.36c1.5,0,2.57,0.36,3.2,1.08c0.74,0.83,0.62,1.9,0.62,1.91
			l0,2.49l0.15,0.13c0.16,0.14,0.24,0.33,0.24,0.53v1.55c0,0.31-0.21,0.59-0.52,0.69l-0.22,0.07l-0.07,0.22
			c-0.26,0.8-0.62,1.54-1.09,2.19c-0.12,0.16-0.23,0.3-0.32,0.42l-0.11,0.12v1.62c0,0.7,0.39,1.34,1.02,1.65l3.69,1.85
			c0.02,0.01,0.05,0.02,0.07,0.04C19.62,21.94,19.58,21.97,19.53,22L19.53,22z M19.53,22"/>
	</g>
	<g id="notification">
		<path class="st2" d="M22.5,22h-19c-0.18,0-0.35-0.1-0.44-0.25c-0.09-0.16-0.09-0.35,0.01-0.5l1.72-2.86
			C5.58,17.06,6,15.55,6,14.01V11.5c0-3.86,3.14-7,7-7s7,3.14,7,7v2.51c0,1.54,0.42,3.05,1.21,4.37l1.72,2.86
			c0.09,0.15,0.09,0.35,0.01,0.5C22.85,21.9,22.68,22,22.5,22z M4.38,21h17.23l-1.26-2.1C19.47,17.42,19,15.73,19,14.01V11.5
			c0-3.31-2.69-6-6-6s-6,2.69-6,6v2.51c0,1.72-0.47,3.41-1.35,4.89L4.38,21z"/>
		<path class="st2" d="M14.5,5.5C14.22,5.5,14,5.28,14,5V3c0-0.55-0.45-1-1-1s-1,0.45-1,1v2c0,0.28-0.22,0.5-0.5,0.5S11,5.28,11,5V3
			c0-1.1,0.9-2,2-2s2,0.9,2,2v2C15,5.28,14.78,5.5,14.5,5.5z"/>
		<path class="st2" d="M13,25c-1.38,0-2.5-1.12-2.5-2.5c0-0.44,0.12-0.88,0.34-1.25c0.14-0.24,0.44-0.32,0.69-0.18
			c0.24,0.14,0.32,0.45,0.18,0.68c-0.13,0.22-0.2,0.49-0.2,0.75c0,0.83,0.67,1.5,1.5,1.5s1.5-0.67,1.5-1.5
			c0-0.26-0.07-0.53-0.2-0.75c-0.14-0.24-0.06-0.55,0.18-0.68c0.24-0.14,0.54-0.06,0.69,0.18c0.22,0.38,0.34,0.81,0.34,1.25
			C15.5,23.88,14.38,25,13,25z"/>
	</g>
</g>
<g id="hover">
	<g id="profile_1_" class="st0">
		<path class="st3" d="M25,13c0-6.62-5.38-12-12-12S1,6.38,1,13c0,3.49,1.5,6.65,3.9,8.84l-0.01,0.01l0.39,0.33
			c0.03,0.02,0.05,0.04,0.08,0.06c0.21,0.17,0.42,0.33,0.64,0.49c0.07,0.05,0.14,0.1,0.21,0.15c0.23,0.16,0.47,0.31,0.72,0.46
			c0.05,0.03,0.11,0.06,0.16,0.09c0.27,0.15,0.54,0.3,0.82,0.43c0.02,0.01,0.04,0.02,0.06,0.03c0.91,0.42,1.89,0.73,2.9,0.92
			c0.03,0,0.05,0.01,0.08,0.01c0.32,0.06,0.63,0.1,0.96,0.13c0.04,0,0.08,0.01,0.12,0.01C12.34,24.98,12.67,25,13,25
			c0.33,0,0.65-0.02,0.97-0.04c0.04,0,0.08-0.01,0.12-0.01c0.32-0.03,0.64-0.07,0.95-0.13c0.03,0,0.06-0.01,0.08-0.02
			c1-0.18,1.96-0.48,2.86-0.9c0.03-0.01,0.07-0.03,0.1-0.04c0.27-0.13,0.53-0.26,0.79-0.41c0.06-0.04,0.13-0.07,0.19-0.11
			c0.23-0.14,0.47-0.28,0.69-0.44c0.08-0.05,0.16-0.11,0.24-0.17c0.19-0.14,0.38-0.28,0.56-0.43c0.04-0.03,0.09-0.06,0.13-0.09
			l0.4-0.33l-0.01-0.01C23.48,19.68,25,16.51,25,13L25,13z M1.87,13C1.87,6.86,6.86,1.87,13,1.87S24.13,6.86,24.13,13
			c0,3.31-1.45,6.28-3.75,8.32c-0.13-0.09-0.26-0.17-0.39-0.23l-3.69-1.85c-0.33-0.17-0.54-0.5-0.54-0.87v-1.29
			c0.09-0.1,0.18-0.22,0.27-0.36c0.48-0.68,0.86-1.43,1.14-2.23c0.55-0.26,0.91-0.81,0.91-1.44V11.5c0-0.38-0.14-0.74-0.39-1.03
			V8.43c0.02-0.23,0.1-1.5-0.82-2.56c-0.8-0.92-2.11-1.38-3.87-1.38c-1.76,0-3.07,0.47-3.87,1.38C8.21,6.93,8.29,8.21,8.31,8.43
			v2.04c-0.25,0.29-0.39,0.66-0.39,1.03v1.55c0,0.48,0.22,0.93,0.58,1.23c0.35,1.38,1.08,2.43,1.35,2.79v1.26
			c0,0.36-0.2,0.68-0.51,0.85L5.9,21.07c-0.11,0.06-0.22,0.13-0.33,0.21C3.3,19.24,1.87,16.28,1.87,13L1.87,13z M19.53,22
			c-0.15,0.11-0.31,0.22-0.47,0.32c-0.07,0.05-0.14,0.09-0.22,0.14c-0.21,0.13-0.42,0.25-0.63,0.36c-0.05,0.02-0.09,0.05-0.14,0.07
			c-0.49,0.25-1,0.47-1.52,0.64c-0.02,0.01-0.04,0.01-0.06,0.02c-0.27,0.09-0.55,0.17-0.83,0.24h0c-0.28,0.07-0.57,0.13-0.86,0.18
			c-0.01,0-0.02,0-0.02,0c-0.27,0.04-0.55,0.07-0.82,0.1c-0.05,0-0.1,0.01-0.15,0.01c-0.27,0.02-0.54,0.03-0.82,0.03
			c-0.28,0-0.55-0.01-0.83-0.03c-0.05,0-0.1-0.01-0.14-0.01c-0.28-0.02-0.55-0.06-0.82-0.1l-0.04-0.01c-0.58-0.1-1.14-0.24-1.7-0.42
			c-0.02-0.01-0.03-0.01-0.05-0.02c-0.27-0.09-0.55-0.2-0.81-0.31c0,0,0,0-0.01,0c-0.25-0.11-0.5-0.23-0.74-0.36
			c-0.03-0.02-0.06-0.03-0.1-0.05c-0.22-0.12-0.44-0.25-0.66-0.38c-0.06-0.04-0.13-0.08-0.19-0.12c-0.2-0.13-0.39-0.26-0.58-0.41
			c-0.02-0.01-0.04-0.03-0.06-0.04l0.04-0.02l3.45-1.88c0.59-0.32,0.96-0.95,0.96-1.62v-1.57l-0.1-0.12
			c-0.01-0.01-0.95-1.16-1.31-2.71l-0.04-0.17l-0.15-0.1c-0.21-0.14-0.34-0.36-0.34-0.61V11.5c0-0.2,0.09-0.39,0.24-0.54l0.15-0.13
			V8.41l0-0.06c0-0.01-0.13-1.06,0.61-1.9C10.42,5.73,11.5,5.36,13,5.36c1.5,0,2.57,0.36,3.2,1.08c0.74,0.83,0.62,1.9,0.62,1.91
			l0,2.49l0.15,0.13c0.16,0.14,0.24,0.33,0.24,0.53v1.55c0,0.31-0.21,0.59-0.52,0.69l-0.22,0.07l-0.07,0.22
			c-0.26,0.8-0.62,1.54-1.09,2.19c-0.12,0.16-0.23,0.3-0.32,0.42l-0.11,0.12v1.62c0,0.7,0.39,1.34,1.02,1.65l3.69,1.85
			c0.02,0.01,0.05,0.02,0.07,0.04C19.62,21.94,19.58,21.97,19.53,22L19.53,22z M19.53,22"/>
	</g>
	<g id="notification_1_" class="st0">
		<path class="st3" d="M22.5,22h-19c-0.18,0-0.35-0.1-0.44-0.25c-0.09-0.16-0.09-0.35,0.01-0.5l1.72-2.86
			C5.58,17.06,6,15.55,6,14.01V11.5c0-3.86,3.14-7,7-7s7,3.14,7,7v2.51c0,1.54,0.42,3.05,1.21,4.37l1.72,2.86
			c0.09,0.15,0.09,0.35,0.01,0.5C22.85,21.9,22.68,22,22.5,22z M4.38,21h17.23l-1.26-2.1C19.47,17.42,19,15.73,19,14.01V11.5
			c0-3.31-2.69-6-6-6s-6,2.69-6,6v2.51c0,1.72-0.47,3.41-1.35,4.89L4.38,21z"/>
		<path class="st3" d="M14.5,5.5C14.22,5.5,14,5.28,14,5V3c0-0.55-0.45-1-1-1s-1,0.45-1,1v2c0,0.28-0.22,0.5-0.5,0.5S11,5.28,11,5V3
			c0-1.1,0.9-2,2-2s2,0.9,2,2v2C15,5.28,14.78,5.5,14.5,5.5z"/>
		<path class="st3" d="M13,25c-1.38,0-2.5-1.12-2.5-2.5c0-0.44,0.12-0.88,0.34-1.25c0.14-0.24,0.44-0.32,0.69-0.18
			c0.24,0.14,0.32,0.45,0.18,0.68c-0.13,0.22-0.2,0.49-0.2,0.75c0,0.83,0.67,1.5,1.5,1.5s1.5-0.67,1.5-1.5
			c0-0.26-0.07-0.53-0.2-0.75c-0.14-0.24-0.06-0.55,0.18-0.68c0.24-0.14,0.54-0.06,0.69,0.18c0.22,0.38,0.34,0.81,0.34,1.25
			C15.5,23.88,14.38,25,13,25z"/>
	</g>
</g>
</svg>
