<svg id="Layer_1" data-name="Layer 1" xmlns="http://www.w3.org/2000/svg" viewBox="0 0 188.34 60.2"><defs><style>.cls-1{fill:#001d34;}.cls-2{fill:#44b7e5;}</style></defs><title>ds_Logo_200px</title><path class="cls-1" d="M122.54,16.24H109.75l.42,48.66h12.37c16.86,0,26-8.68,26-23.33C148.57,28.52,139.92,16.24,122.54,16.24Zm-.34,40.13h-3.61l-.09-6.76,0-24.35h3.67c6.76.48,12.71,2.84,15.78,8.73,1.74,4,2.2,10.24.19,14.06C134.61,54.7,129.41,55.91,122.2,56.37Z" transform="translate(-5.81 -4.71)"/><path class="cls-1" d="M165.19,16.24h9.36l19.6,48.66H182.44L169.9,31.81,157.46,64.9H145.78Z" transform="translate(-5.81 -4.71)"/><path class="cls-1" d="M77.36,16.24h9.35L106.32,64.9H94.61L82.06,31.81,69.63,64.9H58Z" transform="translate(-5.81 -4.71)"/><path class="cls-1" d="M6.18,16.29H18l9.82,13.54-6.39,7.6Z" transform="translate(-5.81 -4.71)"/><path class="cls-1" d="M17.83,64.91l9.33-13.1-6-8.21L5.81,64.91Z" transform="translate(-5.81 -4.71)"/><path class="cls-2" d="M25,40.57l17.45,24H54.52l-17-23.15S58.46,6.11,102,6C102,6,60.28-5.69,25,40.57Z" transform="translate(-5.81 -4.71)"/></svg>